<svg id="Layer_1" data-name="Layer 1" xmlns="http://www.w3.org/2000/svg" viewBox="0 0 209.6 227.82">
  <defs>
    <style>
      .cls-1 {
        fill: #3188d8;
      }
    </style>
  </defs>
  <title>accessible</title>
  <g>
    <circle class="cls-1" cx="80.83" cy="22.5" r="22.5"/>
    <path class="cls-1" d="M135.66,148.87a57.67,57.67,0,1,1-64-57.43L67.1,72.59a78,78,0,1,0,88.3,86.69l-6.33-10.41H135.66Z"/>
    <path class="cls-1" d="M208.52,192.28l-39.2-64.54a11,11,0,0,0-10-7H119.49L113.06,94h31.77a9.46,9.46,0,1,0,0-18.93H108.52L105,60.54l-0.07,0a18,18,0,0,0-34.86,8.36l-0.07,0,14.87,62a18,18,0,0,0,19.33,13.69h47.25L188,204.74c2.66,4.39,9.42,5.16,15.08,1.71S211.19,196.67,208.52,192.28Z"/>
  </g>
</svg>
