<svg id="Layer_1" data-name="Layer 1" xmlns="http://www.w3.org/2000/svg" viewBox="0 0 219.24 195.95">
  <defs>
    <style>
      .cls-1 {
        fill: #32d5f2;
      }

      .cls-2 {
        fill: #ff4db6;
      }
    </style>
  </defs>
  <title>family</title>
  <g id="Page-1">
    <g id="Desktop">
      <g id="icons">
        <g id="family">
          <g id="male-icon-copy">
            <path id="male" class="cls-1" d="M34.53,135.6v-12.2c-9.81-8.14-16.53-21.3-17.21-35.61-3.27-6.78-5-12.89-5-16,0-13.09,6.76-39.28,26.54-35A35.12,35.12,0,0,1,59.68,30C79.85,30,96.2,47.21,96.2,68.43a27.34,27.34,0,0,1-1.08,6.76A47.5,47.5,0,0,1,96.2,85.41c0,16.41-8,31.6-19.73,39.89v9.5c19.13,5.9,33.51,20.11,37,37.45C108.85,179.11,4.73,177.76,0,172,3.42,155.53,16.71,141.89,34.53,135.6Z"/>
          </g>
        </g>
      </g>
    </g>
  </g>
  <g id="Page-1-2" data-name="Page-1">
    <g id="Desktop-2" data-name="Desktop">
      <g id="icons-2" data-name="icons">
        <g id="female-icon">
          <path id="Combined-Shape" class="cls-2" d="M116.72,141.82v-6.66c-18-2.08-37.66-7.79-42.72-23.06C95.26,102.61,92.6,65,92.6,49.15,92.6,22,114,0,140.42,0a46.72,46.72,0,0,1,27.24,8.75c25.9-5.52,34.75,28,34.75,44.71,0,11.92-3.54,42.25,16.83,60.36-7.45,14-32,19.36-51.26,21.34v3.9c26.41,7,46.56,26.58,51.26,50.76-5.91,9.08-139.19,7.29-145.24-.31C78.28,168.13,94.65,150.38,116.72,141.82Z"/>
        </g>
      </g>
    </g>
  </g>
</svg>
