<?xml version="1.0" encoding="UTF-8" standalone="no"?>
<svg width="146px" height="196px" viewBox="0 0 146 196" version="1.1" xmlns="http://www.w3.org/2000/svg" xmlns:xlink="http://www.w3.org/1999/xlink">
    <!-- Generator: Sketch 40.3 (33839) - http://www.bohemiancoding.com/sketch -->
    <title>Combined Shape</title>
    <desc>Created with Sketch.</desc>
    <defs></defs>
    <g id="Page-1" stroke="none" stroke-width="1" fill="none" fill-rule="evenodd">
        <g id="Desktop" transform="translate(-415.000000, -282.000000)" fill="#e88d43">
            <g id="icons" transform="translate(80.000000, 282.000000)">
                <g id="female-icon" transform="translate(335.000000, 0.000000)">
                    <path d="M42.7187905,141.818781 L42.7187905,135.153967 C24.7279606,133.070254 5.05866356,127.366944 0,112.098341 C21.2552031,102.613097 18.5983027,64.9778698 18.5983027,49.1508111 C18.5983027,22.0055677 40.0099295,0 66.4225096,0 C76.5452809,0 85.9334876,3.23228591 93.6632994,8.74740115 C119.560517,3.23228591 128.416852,36.720611 128.416852,53.4622858 C128.416852,65.3842932 124.874318,95.7147374 145.243888,113.822931 C137.79447,127.817939 113.24965,133.186903 93.9813391,135.161642 L93.9813391,139.064084 C120.394186,146.050685 140.538213,165.64038 145.243888,189.823176 C139.332135,198.90077 6.05712221,197.11248 0,189.512357 C4.2846047,168.130283 20.6473859,150.377728 42.7187905,141.818781 Z" id="Combined-Shape"></path>
                </g>
            </g>
        </g>
    </g>
</svg>
