<?xml version="1.0" encoding="UTF-8" standalone="no"?>
<svg width="144px" height="199px" viewBox="0 0 144 199" version="1.1" xmlns="http://www.w3.org/2000/svg" xmlns:xlink="http://www.w3.org/1999/xlink">
    <!-- Generator: Sketch 40.3 (33839) - http://www.bohemiancoding.com/sketch -->
    <title>Combined Shape</title>
    <desc>Created with Sketch.</desc>
    <defs></defs>
    <g id="Page-1" stroke="none" stroke-width="1" fill="none" fill-rule="evenodd">
        <g id="Desktop" transform="translate(-80.000000, -282.000000)" fill="#45C0FF">
            <g id="icons" transform="translate(80.000000, 282.000000)">
                <g id="male-icon">
                    <path d="M45,142.081038 L45,126.708003 C31.5549107,115.183317 22.5,95.6477665 22.5,74.6193052 C22.5,74.2967155 22.5020848,73.9751468 22.5062388,73.6546096 C19.5456353,66.3279192 18,59.9919851 18,56.492674 C18,38.8020354 26.7096774,3.41550069 52.1780483,9.24322771 C59.7798576,3.41550069 69.0125995,0 78.9677419,0 C104.942941,0 126,23.2529033 126,51.9368132 C126,56.4105834 124.379223,63.2505742 121.404691,70.8707093 C121.467919,72.1041058 121.5,73.3538499 121.5,74.6193052 C121.5,95.6477665 112.445089,115.183317 99,126.708003 L99,142.103071 C122.292784,150.54844 139.687012,169.584745 144,192.675469 C138.138877,202.051308 6.00524822,200.204264 0,192.354438 C4.41747269,169.388315 21.7847427,150.476208 45,142.081038 Z" id="Combined-Shape"></path>
                </g>
            </g>
        </g>
    </g>
</svg>