<svg id="Layer_1" data-name="Layer 1" xmlns="http://www.w3.org/2000/svg" viewBox="0 0 131.74 74.96">
  <defs>
    <style>
      .cls-1 {
        fill: none;
        stroke: #fff;
        stroke-linecap: round;
        stroke-linejoin: round;
        stroke-width: 6px;
      }

      .cls-2 {
        fill: #fff;
      }
    </style>
  </defs>
  <title>oneroof</title>
  <polygon class="cls-1" points="22.15 3 100.88 3 128.26 35.86 49.54 35.86 22.15 3"/>
  <line class="cls-1" x1="21.48" y1="3" x2="3" y2="35.86"/>
  <g>
    <path class="cls-2" d="M12.18,61.08a7.83,7.83,0,0,1,.65-3.27,6.82,6.82,0,0,1,1.7-2.35,7.34,7.34,0,0,1,2.37-1.4,7.64,7.64,0,0,1,5.29,0,7.35,7.35,0,0,1,2.37,1.4,6.82,6.82,0,0,1,1.7,2.35,7.82,7.82,0,0,1,.65,3.27V77.26a7.78,7.78,0,0,1-.65,3.29,6.86,6.86,0,0,1-1.7,2.32,7.33,7.33,0,0,1-2.37,1.4,7.64,7.64,0,0,1-5.29,0,7.32,7.32,0,0,1-2.37-1.4,6.86,6.86,0,0,1-1.7-2.32,7.79,7.79,0,0,1-.65-3.29Zm4.39,16.18a2.92,2.92,0,0,0,.88,2.35,3.27,3.27,0,0,0,4.18,0,2.92,2.92,0,0,0,.88-2.35V61.08a2.92,2.92,0,0,0-.88-2.35,3.27,3.27,0,0,0-4.18,0,2.92,2.92,0,0,0-.88,2.35Z" transform="translate(-10.18 -9.79)"/>
    <path class="cls-2" d="M30.6,53.84h4.22l6.63,18.47h.09V53.84h4.39V84.49H41.79L35.08,66.07H35V84.49H30.6Z" transform="translate(-10.18 -9.79)"/>
    <path class="cls-2" d="M49.88,53.84H63V58h-8.7v9h7.58V71.1H54.27v9H63v4.39H49.88Z" transform="translate(-10.18 -9.79)"/>
    <path class="cls-2" d="M73.82,53.84h7.06q7.75,0,7.75,9a11.37,11.37,0,0,1-.84,4.58,6.49,6.49,0,0,1-2.95,3.08l4.73,14H84.92L80.83,71.41H78.21V84.49H73.82Zm4.39,13.69h2.5a4.42,4.42,0,0,0,1.85-.32,2.38,2.38,0,0,0,1.05-.93,3.94,3.94,0,0,0,.5-1.49,16.18,16.18,0,0,0,0-4.09,3.7,3.7,0,0,0-.54-1.51,2.44,2.44,0,0,0-1.14-.93,5.19,5.19,0,0,0-1.94-.3H78.21Z" transform="translate(-10.18 -9.79)"/>
    <path class="cls-2" d="M91.89,61.08a7.82,7.82,0,0,1,.65-3.27,6.81,6.81,0,0,1,1.7-2.35,7.34,7.34,0,0,1,2.37-1.4,7.64,7.64,0,0,1,5.29,0,7.35,7.35,0,0,1,2.37,1.4A6.84,6.84,0,0,1,106,57.8a7.83,7.83,0,0,1,.65,3.27V77.26a7.79,7.79,0,0,1-.65,3.29,6.88,6.88,0,0,1-1.7,2.32,7.32,7.32,0,0,1-2.37,1.4,7.64,7.64,0,0,1-5.29,0,7.31,7.31,0,0,1-2.37-1.4,6.85,6.85,0,0,1-1.7-2.32,7.78,7.78,0,0,1-.65-3.29Zm4.39,16.18a2.92,2.92,0,0,0,.88,2.35,3.27,3.27,0,0,0,4.18,0,2.92,2.92,0,0,0,.88-2.35V61.08a2.92,2.92,0,0,0-.88-2.35,3.27,3.27,0,0,0-4.18,0,2.92,2.92,0,0,0-.88,2.35Z" transform="translate(-10.18 -9.79)"/>
    <path class="cls-2" d="M110.23,61.08a7.84,7.84,0,0,1,.65-3.27,6.83,6.83,0,0,1,1.7-2.35,7.33,7.33,0,0,1,2.37-1.4,7.64,7.64,0,0,1,5.29,0,7.35,7.35,0,0,1,2.37,1.4,6.82,6.82,0,0,1,1.7,2.35,7.83,7.83,0,0,1,.65,3.27V77.26a7.79,7.79,0,0,1-.65,3.29,6.86,6.86,0,0,1-1.7,2.32,7.33,7.33,0,0,1-2.37,1.4,7.64,7.64,0,0,1-5.29,0,7.3,7.3,0,0,1-2.37-1.4,6.87,6.87,0,0,1-1.7-2.32,7.8,7.8,0,0,1-.65-3.29Zm4.39,16.18a2.92,2.92,0,0,0,.88,2.35,3.27,3.27,0,0,0,4.17,0,2.92,2.92,0,0,0,.88-2.35V61.08a2.92,2.92,0,0,0-.88-2.35,3.27,3.27,0,0,0-4.17,0,2.92,2.92,0,0,0-.88,2.35Z" transform="translate(-10.18 -9.79)"/>
    <path class="cls-2" d="M128.83,53.84h13.09V58h-8.7v9.3h7.58v4.13h-7.58V84.49h-4.39Z" transform="translate(-10.18 -9.79)"/>
  </g>
</svg>
