<svg id="Layer_1" data-name="Layer 1" xmlns="http://www.w3.org/2000/svg" viewBox="0 0 57.97 20.13">
  <defs>
    <style>
      .cls-1 {
        fill: #fff;
      }

      .cls-2 {
        fill: #3b3b49;
      }
    </style>
  </defs>
  <title>oneRoofFull</title>
  <path class="cls-1" d="M22.24,46.38A4,4,0,0,1,20.52,46a4.27,4.27,0,0,1-1.33-1,4.46,4.46,0,0,1-.86-1.39A4.36,4.36,0,0,1,18,42a4.25,4.25,0,0,1,.32-1.62,4.29,4.29,0,0,1,2.24-2.32,4.08,4.08,0,0,1,1.7-.35,4,4,0,0,1,1.73.37,4.21,4.21,0,0,1,1.33,1,4.45,4.45,0,0,1,.85,1.39,4.39,4.39,0,0,1,.3,1.58,4.25,4.25,0,0,1-.32,1.62A4.31,4.31,0,0,1,23.95,46,4,4,0,0,1,22.24,46.38ZM20,42.06a3.18,3.18,0,0,0,.14,1,2.54,2.54,0,0,0,.43.82,2.09,2.09,0,0,0,.7.58,2.07,2.07,0,0,0,1,.22,2,2,0,0,0,1-.23,2.14,2.14,0,0,0,.7-0.59A2.6,2.6,0,0,0,24.35,43,3.26,3.26,0,0,0,24.49,42a3.18,3.18,0,0,0-.14-1,2.42,2.42,0,0,0-.43-0.82,2.15,2.15,0,0,0-.7-0.56,2.08,2.08,0,0,0-1-.21,2,2,0,0,0-1,.22,2.19,2.19,0,0,0-.7.58,2.46,2.46,0,0,0-.42.82A3.28,3.28,0,0,0,20,42.06Z" transform="translate(-18.02 -26.25)"/>
  <path class="cls-1" d="M29.6,41.43V46.3h-2V37.78h1.54l4,5v-5h2V46.3H33.52Z" transform="translate(-18.02 -26.25)"/>
  <path class="cls-1" d="M42.73,44.58V46.3h-6V37.78h5.88v1.73H38.71v1.66h3.36v1.6H38.71v1.81h4Z" transform="translate(-18.02 -26.25)"/>
  <path class="cls-2" d="M43.93,46.3V37.78h3.84a2.47,2.47,0,0,1,1.11.25,3,3,0,0,1,.88.66,3.09,3.09,0,0,1,.58.92,2.75,2.75,0,0,1,.21,1,3,3,0,0,1-.1.76,3,3,0,0,1-.28.69,2.6,2.6,0,0,1-1,1L51,46.3H48.81l-1.63-2.75H45.9V46.3h-2Zm2-4.46h1.8a0.74,0.74,0,0,0,.6-0.33,1.36,1.36,0,0,0,.25-0.85,1.19,1.19,0,0,0-.29-0.84,0.84,0.84,0,0,0-.62-0.31H45.9v2.33Z" transform="translate(-18.02 -26.25)"/>
  <path class="cls-2" d="M55.7,46.38A4,4,0,0,1,54,46a4.27,4.27,0,0,1-1.33-1,4.46,4.46,0,0,1-.86-1.39A4.36,4.36,0,0,1,51.48,42a4.25,4.25,0,0,1,.32-1.62A4.29,4.29,0,0,1,54,38.09a4.08,4.08,0,0,1,1.7-.35,4,4,0,0,1,1.73.37,4.21,4.21,0,0,1,1.33,1,4.45,4.45,0,0,1,.85,1.39,4.39,4.39,0,0,1,.3,1.58,4.25,4.25,0,0,1-.32,1.62A4.31,4.31,0,0,1,57.4,46,4,4,0,0,1,55.7,46.38Zm-2.22-4.32a3.18,3.18,0,0,0,.14,1,2.54,2.54,0,0,0,.43.82,2.09,2.09,0,0,0,.7.58,2.07,2.07,0,0,0,1,.22,2,2,0,0,0,1-.23,2.14,2.14,0,0,0,.7-0.59A2.6,2.6,0,0,0,57.81,43,3.26,3.26,0,0,0,57.94,42a3.18,3.18,0,0,0-.14-1,2.42,2.42,0,0,0-.43-0.82,2.15,2.15,0,0,0-.7-0.56,2.08,2.08,0,0,0-1-.21,2,2,0,0,0-1,.22,2.19,2.19,0,0,0-.7.58,2.46,2.46,0,0,0-.42.82A3.28,3.28,0,0,0,53.48,42.06Z" transform="translate(-18.02 -26.25)"/>
  <path class="cls-2" d="M64.82,46.38A4,4,0,0,1,63.09,46a4.27,4.27,0,0,1-1.33-1,4.46,4.46,0,0,1-.86-1.39A4.36,4.36,0,0,1,60.6,42a4.25,4.25,0,0,1,.32-1.62,4.29,4.29,0,0,1,2.24-2.32,4.08,4.08,0,0,1,1.7-.35,4,4,0,0,1,1.73.37,4.21,4.21,0,0,1,1.33,1,4.45,4.45,0,0,1,.85,1.39,4.39,4.39,0,0,1,.3,1.58,4.25,4.25,0,0,1-.32,1.62A4.31,4.31,0,0,1,66.52,46,4,4,0,0,1,64.82,46.38ZM62.6,42.06a3.18,3.18,0,0,0,.14,1,2.54,2.54,0,0,0,.43.82,2.09,2.09,0,0,0,.7.58,2.07,2.07,0,0,0,1,.22,2,2,0,0,0,1-.23,2.14,2.14,0,0,0,.7-0.59A2.6,2.6,0,0,0,66.93,43,3.26,3.26,0,0,0,67.06,42a3.18,3.18,0,0,0-.14-1,2.42,2.42,0,0,0-.43-0.82,2.15,2.15,0,0,0-.7-0.56,2.08,2.08,0,0,0-1-.21,2,2,0,0,0-1,.22,2.19,2.19,0,0,0-.7.58,2.46,2.46,0,0,0-.42.82A3.28,3.28,0,0,0,62.6,42.06Z" transform="translate(-18.02 -26.25)"/>
  <path class="cls-2" d="M70.21,46.3V37.78H76v1.73H72.18v1.84h3.14v1.6H72.18V46.3h-2Z" transform="translate(-18.02 -26.25)"/>
  <polygon class="cls-2" points="30.34 3.4 41.74 9.75 47.84 9.75 30.34 0 12.85 9.75 18.95 9.75 30.34 3.4"/>
</svg>
