<svg id="Layer_1" data-name="Layer 1" xmlns="http://www.w3.org/2000/svg" viewBox="0 0 131.48 158.11">
  <defs>
    <style>
      .cls-1 {
        fill: #fff;
      }

      .cls-2 {
        fill: #3b3b49;
      }
    </style>
  </defs>
  <title>oneRoofIcon</title>
  <path class="cls-1" d="M574.69,506.1a8.71,8.71,0,0,1-3.8-.82,9.38,9.38,0,0,1-2.93-2.15,9.81,9.81,0,0,1-1.89-3,9.6,9.6,0,0,1-.67-3.54,9.35,9.35,0,0,1,.7-3.56,9.44,9.44,0,0,1,4.92-5.11,9,9,0,0,1,3.75-.78,8.71,8.71,0,0,1,3.8.82,9.27,9.27,0,0,1,2.93,2.16,9.77,9.77,0,0,1,1.87,3.06,9.64,9.64,0,0,1,.66,3.48,9.34,9.34,0,0,1-.7,3.56,9.48,9.48,0,0,1-4.9,5.12A8.82,8.82,0,0,1,574.69,506.1Zm-4.88-9.5a7,7,0,0,0,.32,2.1,5.58,5.58,0,0,0,.94,1.81,4.6,4.6,0,0,0,1.54,1.27,4.55,4.55,0,0,0,2.11.47,4.46,4.46,0,0,0,2.16-.5,4.7,4.7,0,0,0,1.53-1.31,5.72,5.72,0,0,0,.91-1.82,7.17,7.17,0,0,0,.3-2.07,7,7,0,0,0-.32-2.1,5.32,5.32,0,0,0-1-1.79,4.72,4.72,0,0,0-1.54-1.24,4.58,4.58,0,0,0-2.1-.46,4.5,4.5,0,0,0-2.15.49,4.81,4.81,0,0,0-1.53,1.28,5.41,5.41,0,0,0-.92,1.81A7.22,7.22,0,0,0,569.81,496.6Z" transform="translate(-565.4 -347.99)"/>
  <path class="cls-1" d="M590.86,495.23v10.71h-4.33V487.21h3.38l8.73,11v-11H603v18.74h-3.48Z" transform="translate(-565.4 -347.99)"/>
  <path class="cls-1" d="M619.73,502.14v3.8H606.56V487.21h12.93V491h-8.6v3.64h7.39v3.51h-7.39v4h8.84Z" transform="translate(-565.4 -347.99)"/>
  <path class="cls-2" d="M626.37,505.94V487.21h8.44a5.44,5.44,0,0,1,2.44.55,6.49,6.49,0,0,1,1.94,1.45,6.8,6.8,0,0,1,1.28,2,6,6,0,0,1,.46,2.3,6.63,6.63,0,0,1-.21,1.68,6.53,6.53,0,0,1-.61,1.52,5.73,5.73,0,0,1-2.24,2.24l4.12,7h-4.88l-3.59-6H630.7v6h-4.33Zm4.33-9.82h4a1.62,1.62,0,0,0,1.32-.73,3,3,0,0,0,.55-1.86,2.62,2.62,0,0,0-.63-1.85,1.85,1.85,0,0,0-1.37-.69H630.7v5.12Z" transform="translate(-565.4 -347.99)"/>
  <path class="cls-2" d="M652.25,506.1a8.71,8.71,0,0,1-3.8-.82,9.38,9.38,0,0,1-2.93-2.15,9.81,9.81,0,0,1-1.89-3,9.6,9.6,0,0,1-.67-3.54,9.35,9.35,0,0,1,.7-3.56,9.44,9.44,0,0,1,4.92-5.11,9,9,0,0,1,3.75-.78,8.71,8.71,0,0,1,3.8.82,9.27,9.27,0,0,1,2.93,2.16,9.77,9.77,0,0,1,1.87,3.06,9.64,9.64,0,0,1,.66,3.48,9.34,9.34,0,0,1-.7,3.56,9.48,9.48,0,0,1-4.9,5.12A8.82,8.82,0,0,1,652.25,506.1Zm-4.88-9.5a7,7,0,0,0,.32,2.1,5.58,5.58,0,0,0,.94,1.81,4.6,4.6,0,0,0,1.54,1.27,4.55,4.55,0,0,0,2.11.47,4.46,4.46,0,0,0,2.16-.5,4.7,4.7,0,0,0,1.53-1.31,5.72,5.72,0,0,0,.91-1.82,7.17,7.17,0,0,0,.3-2.07,7,7,0,0,0-.32-2.1,5.32,5.32,0,0,0-1-1.79,4.72,4.72,0,0,0-1.54-1.24,4.58,4.58,0,0,0-2.1-.46,4.5,4.5,0,0,0-2.15.49,4.81,4.81,0,0,0-1.53,1.28,5.41,5.41,0,0,0-.92,1.81A7.22,7.22,0,0,0,647.37,496.6Z" transform="translate(-565.4 -347.99)"/>
  <path class="cls-2" d="M672.31,506.1a8.71,8.71,0,0,1-3.8-.82,9.38,9.38,0,0,1-2.93-2.15,9.81,9.81,0,0,1-1.89-3,9.6,9.6,0,0,1-.67-3.54,9.35,9.35,0,0,1,.7-3.56,9.44,9.44,0,0,1,4.92-5.11,9,9,0,0,1,3.75-.78,8.71,8.71,0,0,1,3.8.82,9.27,9.27,0,0,1,2.93,2.16,9.77,9.77,0,0,1,1.87,3.06,9.64,9.64,0,0,1,.66,3.48,9.34,9.34,0,0,1-.7,3.56,9.48,9.48,0,0,1-4.9,5.12A8.82,8.82,0,0,1,672.31,506.1Zm-4.88-9.5a7,7,0,0,0,.32,2.1,5.58,5.58,0,0,0,.94,1.81,4.6,4.6,0,0,0,1.54,1.27,4.55,4.55,0,0,0,2.11.47,4.46,4.46,0,0,0,2.16-.5,4.7,4.7,0,0,0,1.53-1.31,5.72,5.72,0,0,0,.91-1.82,7.17,7.17,0,0,0,.3-2.07,7,7,0,0,0-.32-2.1,5.32,5.32,0,0,0-1-1.79,4.72,4.72,0,0,0-1.54-1.24,4.58,4.58,0,0,0-2.1-.46,4.5,4.5,0,0,0-2.15.49,4.81,4.81,0,0,0-1.53,1.28,5.41,5.41,0,0,0-.92,1.81A7.22,7.22,0,0,0,667.43,496.6Z" transform="translate(-565.4 -347.99)"/>
  <path class="cls-2" d="M684.16,505.94V487.21h12.72V491h-8.39v4h6.91v3.51h-6.91v7.39h-4.33Z" transform="translate(-565.4 -347.99)"/>
  <polygon class="cls-2" points="62.1 10.46 97.17 30.01 115.94 30.01 62.1 0 8.27 30.01 27.04 30.01 62.1 10.46"/>
  <path class="cls-2" d="M626.52,474.19V389.8h38a24.46,24.46,0,0,1,11,2.5,29.27,29.27,0,0,1,8.74,6.54A30.91,30.91,0,0,1,690,408a27.31,27.31,0,0,1,2.08,10.34,29.44,29.44,0,0,1-1,7.55,29,29,0,0,1-2.73,6.83,25.85,25.85,0,0,1-10.11,10.1l18.54,31.38h-22L658.73,447H646v27.22H626.52ZM646,430h17.83a7.3,7.3,0,0,0,5.94-3.27,13.42,13.42,0,0,0,2.5-8.38,11.81,11.81,0,0,0-2.84-8.32,8.37,8.37,0,0,0-6.18-3.09H646V430Z" transform="translate(-565.4 -347.99)"/>
  <polygon class="cls-1" points="4 69.97 16.79 81.59 25.6 72.31 25.6 126.01 44.6 126.01 44.6 42.01 29.85 42.01 4 69.97"/>
</svg>
